<svg id="visual" viewBox="0 0 900 600" width="900" height="600" xmlns="http://www.w3.org/2000/svg" xmlns:xlink="http://www.w3.org/1999/xlink" version="1.1"><rect x="0" y="0" width="900" height="600" fill="#FFFFFF"></rect><defs><linearGradient id="grad1_0" x1="33.3%" y1="100%" x2="100%" y2="0%"><stop offset="20%" stop-color="#ffffff" stop-opacity="1"></stop><stop offset="80%" stop-color="#ffffff" stop-opacity="1"></stop></linearGradient></defs><defs><linearGradient id="grad2_0" x1="0%" y1="100%" x2="66.7%" y2="0%"><stop offset="20%" stop-color="#ffffff" stop-opacity="1"></stop><stop offset="80%" stop-color="#ffffff" stop-opacity="1"></stop></linearGradient></defs><g transform="translate(900, 600)"><path d="M-486.7 0C-485.8 -70 -484.8 -140 -449.7 -186.3C-414.6 -232.5 -345.3 -255.1 -299.1 -299.1C-252.9 -343.1 -229.7 -408.6 -183.7 -443.5C-137.7 -478.3 -68.8 -482.5 0 -486.7L0 0Z" fill="#6C63FF"></path></g><g transform="translate(0, 0)"><path d="M486.7 0C487.8 71.3 488.8 142.5 449.7 186.3C410.6 230 331.3 246.2 281.4 281.4C231.6 316.7 211.1 371 169.1 408.4C127.1 445.8 63.6 466.2 0 486.7L0 0Z" fill="#6C63FF"></path></g></svg>